# xmcd CD database file
#
# Track frame offsets:
#	150
#	10354
#	12768
#	30509
#	47093
#	68448
#	88985
#	92367
#	110495
#	113267
#	130577
#	145818
#	159126
#	175873
#	182630
#	200368
#	216926
#
# Disc length: 2944 seconds
#
# Revision: 0
# Processed by: cddbd v1.5.2PL0 Copyright (c) Steve Scherf et al.
# Submitted via: CDex 1.70beta2
#
DISCID=cd0b7e11
DTITLE=Roadkill Bill - Cdn. - Highway Hash
DYEAR=2006
DGENRE=Country
TTITLE0=Little Yellow Rose
TTITLE1=Ernest1
TTITLE2=Take Me
TTITLE3=I Remember
TTITLE4=Don't You Ever Get Tired
TTITLE5=Cowgirl Blues
TTITLE6=Ernest3
TTITLE7=Moonshine Mike
TTITLE8=Ernest4
TTITLE9=Heart And A Diamond
TTITLE10=More Curves
TTITLE11=Tears And Ink
TTITLE12=Hey Bartender
TTITLE13=Ernest5
TTITLE14=Kingston
TTITLE15=Mississsipi
TTITLE16=Ernest6
EXTD=YEAR: 2006
EXTT0=
EXTT1=
EXTT2=
EXTT3=
EXTT4=
EXTT5=
EXTT6=
EXTT7=
EXTT8=
EXTT9=
EXTT10=
EXTT11=
EXTT12=
EXTT13=
EXTT14=
EXTT15=
EXTT16=
PLAYORDER=
